<svg width="382" height="70" viewBox="0 0 382 70" fill="none" xmlns="http://www.w3.org/2000/svg">
<path d="M5.248 62.56V12.64H17.216V19.488H13.184V55.712H17.216V62.56H5.248ZM38.569 62.56V55.712H42.665V19.488H38.569V12.64H50.601V62.56H38.569Z" fill="#1DAEEC"/>
<path d="M102.156 22.44V48H97.224V37.092H85.632V48H80.664V22.44H85.632V32.772H97.224V22.44H102.156ZM112.456 31.584V48H107.488V22.44H111.448L124.66 39.288V22.476H129.628V48H125.488L112.456 31.584ZM145.565 48.18C143.885 48.18 142.313 47.844 140.849 47.172C139.385 46.5 138.089 45.576 136.961 44.4C135.857 43.2 134.993 41.808 134.369 40.224C133.745 38.64 133.433 36.924 133.433 35.076C133.433 33.324 133.745 31.68 134.369 30.144C134.993 28.584 135.869 27.216 136.997 26.04C138.125 24.864 139.445 23.94 140.957 23.268C142.469 22.596 144.113 22.26 145.889 22.26C148.265 22.26 150.317 22.776 152.045 23.808C153.773 24.816 155.069 26.16 155.933 27.84L152.225 30.576C151.577 29.328 150.665 28.368 149.489 27.696C148.337 27 147.077 26.652 145.709 26.652C144.269 26.652 142.997 27.048 141.893 27.84C140.813 28.632 139.961 29.676 139.337 30.972C138.737 32.268 138.437 33.684 138.437 35.22C138.437 36.828 138.761 38.28 139.409 39.576C140.057 40.872 140.945 41.904 142.073 42.672C143.225 43.416 144.533 43.788 145.997 43.788C148.469 43.788 150.701 42.624 152.693 40.296V38.496H147.545V34.86H156.797V48H152.693V45.12C150.629 47.16 148.253 48.18 145.565 48.18ZM169.68 48V22.44H174.648V48H169.68ZM184.948 31.584V48H179.98V22.44H183.94L197.152 39.288V22.476H202.12V48H197.98L184.948 31.584ZM226.553 26.796H218.381V48H213.449V26.796H205.277V22.44H226.553V26.796ZM247.475 43.644V48H229.727V22.44H247.151V26.796H234.695V32.952H245.459V36.984H234.695V43.644H247.475ZM251.348 48V22.44H262.652C263.828 22.44 264.908 22.68 265.892 23.16C266.9 23.64 267.764 24.288 268.484 25.104C269.228 25.92 269.792 26.832 270.176 27.84C270.584 28.848 270.788 29.88 270.788 30.936C270.788 32.568 270.368 34.068 269.528 35.436C268.712 36.804 267.596 37.788 266.18 38.388L272.012 48H266.54L261.284 39.432H256.316V48H251.348ZM256.316 35.076H262.544C263.48 35.076 264.248 34.68 264.848 33.888C265.472 33.072 265.784 32.088 265.784 30.936C265.784 30.144 265.616 29.436 265.28 28.812C264.944 28.188 264.512 27.696 263.984 27.336C263.48 26.976 262.928 26.796 262.328 26.796H256.316V35.076ZM280.257 31.584V48H275.289V22.44H279.249L292.461 39.288V22.476H297.429V48H293.289L280.257 31.584ZM317.974 29.136C317.758 28.896 317.302 28.584 316.606 28.2C315.91 27.792 315.07 27.432 314.086 27.12C313.126 26.784 312.13 26.616 311.098 26.616C308.386 26.616 307.03 27.576 307.03 29.496C307.03 30.192 307.246 30.744 307.678 31.152C308.11 31.56 308.758 31.908 309.622 32.196C310.486 32.484 311.566 32.796 312.862 33.132C314.542 33.564 315.994 34.068 317.218 34.644C318.466 35.22 319.414 35.988 320.062 36.948C320.734 37.884 321.07 39.132 321.07 40.692C321.07 42.516 320.626 43.992 319.738 45.12C318.874 46.224 317.722 47.028 316.282 47.532C314.842 48.036 313.282 48.288 311.602 48.288C309.682 48.288 307.774 48 305.878 47.424C304.006 46.824 302.338 46.008 300.874 44.976L303.07 40.692C303.286 40.908 303.67 41.196 304.222 41.556C304.774 41.892 305.446 42.24 306.238 42.6C307.03 42.936 307.894 43.224 308.83 43.464C309.766 43.704 310.714 43.824 311.674 43.824C314.41 43.824 315.778 42.948 315.778 41.196C315.778 40.452 315.502 39.852 314.95 39.396C314.398 38.94 313.618 38.556 312.61 38.244C311.626 37.932 310.474 37.584 309.154 37.2C307.522 36.744 306.166 36.24 305.086 35.688C304.03 35.112 303.238 34.404 302.71 33.564C302.182 32.7 301.918 31.608 301.918 30.288C301.918 28.536 302.326 27.072 303.142 25.896C303.982 24.696 305.11 23.796 306.526 23.196C307.942 22.572 309.514 22.26 311.242 22.26C313.018 22.26 314.674 22.548 316.21 23.124C317.746 23.7 319.066 24.36 320.17 25.104L317.974 29.136ZM346.316 22.44V48H341.384V37.092H329.792V48H324.824V22.44H329.792V32.772H341.384V22.44H346.316ZM351.648 48V22.44H356.616V48H351.648ZM361.949 48V22.44H372.785C373.961 22.44 375.041 22.68 376.025 23.16C377.033 23.64 377.897 24.288 378.617 25.104C379.337 25.92 379.901 26.832 380.309 27.84C380.717 28.848 380.921 29.88 380.921 30.936C380.921 32.376 380.585 33.744 379.913 35.04C379.241 36.336 378.305 37.392 377.105 38.208C375.929 39.024 374.549 39.432 372.965 39.432H366.917V48H361.949ZM366.917 35.076H372.677C373.589 35.076 374.345 34.704 374.945 33.96C375.569 33.192 375.881 32.184 375.881 30.936C375.881 29.616 375.533 28.596 374.837 27.876C374.141 27.156 373.349 26.796 372.461 26.796H366.917V35.076Z" fill="#1DAEEC"/>
</svg>
